<?xml version="1.0" encoding="UTF-8"?>
<svg width="233px" height="273px" viewBox="0 0 233 273" version="1.1" xmlns="http://www.w3.org/2000/svg" xmlns:xlink="http://www.w3.org/1999/xlink">
    <!-- Generator: Sketch 50.2 (55047) - http://www.bohemiancoding.com/sketch -->
    <title>ey_logo2</title>
    <desc>Created with Sketch.</desc>
    <defs></defs>
    <g id="Page-1" stroke="none" stroke-width="1" fill="none" fill-rule="evenodd">
        <g id="ey_logo2" fill-rule="nonzero">
            <polygon id="Shape" fill="#FFD500" points="186.1 0.5 0.4 68.3 186.1 35.5"></polygon>
            <path d="M19.7,228.8 C19.7,225.6 17.5,224.2 16.3,223.7 C17.9,222.9 18.9,221.1 18.9,219.2 C18.9,215.4 16.3,213.2 11.8,213.2 L2.1,213.2 L2.1,236.1 L11.7,236.1 C16.7,236.1 19.7,233.4 19.7,228.8 Z M11.7,232.2 L6.3,232.2 L6.3,225.7 L11.7,225.7 C14,225.7 15.2,226.8 15.2,228.9 C15.2,231.1 13.9,232.2 11.7,232.2 Z M11.7,222 L6.3,222 L6.3,217.1 L11.5,217.1 C13.5,217.1 14.5,217.9 14.5,219.6 C14.5,220.7 14,222 11.7,222 Z M22.6,228.9 L22.6,219.5 L26.7,219.5 L26.7,228.7 C26.7,231.5 27.7,232.8 29.8,232.8 C31.9,232.8 32.9,231.4 32.9,228.7 L32.9,219.5 L37,219.5 L37,236.2 L32.9,236.2 L32.9,234.9 C31.9,236 30.5,236.6 28.9,236.6 C23.4,236.5 22.6,231.7 22.6,228.9 Z M85.5,236.1 L81.4,236.1 L81.4,219.4 L85.5,219.4 L85.5,220.8 C86.5,219.7 88,219 89.7,219 C93.7,219 95.8,221.6 95.8,226.6 L95.8,236 L91.7,236 L91.7,226.8 C91.7,224 90.7,222.7 88.7,222.7 C86.6,222.7 85.5,224.1 85.5,226.8 L85.5,236.1 Z M44.8,227.8 L44.8,236.2 L40.7,236.2 L40.7,219.5 L44.8,219.5 L44.8,227.8 Z M48.5,214.5 L52.6,212.4 L52.6,236 L48.5,236 L48.5,214.5 Z M65.8,220.6 C64.8,219.6 63.5,219.1 62.1,219.1 C58.1,219.1 55.6,222.4 55.6,227.6 C55.6,233.2 58,236.5 62.1,236.5 C63.5,236.5 64.8,236 65.9,234.9 L65.9,236.2 L70,236.2 L70,212.6 L65.9,214.7 L65.9,220.6 L65.8,220.6 Z M62.9,232.7 C61.5,232.7 59.8,231.8 59.8,227.5 C59.8,223.6 61.5,222.8 62.9,222.8 C64.4,222.8 65.4,223.7 65.9,224.4 L65.9,231 C65.2,231.8 64.4,232.7 62.9,232.7 Z M155.7,219.1 C154.4,219.1 153,219.7 152,220.7 L152,213 L147.9,215.1 L147.9,236.3 L152,236.3 L152,235 C153,236.1 154.3,236.6 155.8,236.6 C159.9,236.6 162.3,233.4 162.3,227.7 C162.3,222.3 159.8,219.1 155.7,219.1 Z M155,222.8 C156.5,222.8 158.1,224 158.1,227.5 C158.1,231 157.1,232.7 155.1,232.7 C153.6,232.7 152.5,231.7 152.1,231.1 L152.1,224.5 C152.7,223.5 153.8,222.8 155,222.8 Z M108.8,220.6 C107.8,219.6 106.5,219.1 105.1,219.1 C101.1,219.1 98.6,222.4 98.6,227.6 C98.6,233.2 101,236.5 105.1,236.5 C106.6,236.5 107.8,236 108.9,234.9 L108.9,235.3 C108.9,237.1 108.9,239.6 103.6,239.7 L103.4,239.7 L104.9,242.9 L105,242.9 C110.5,242.8 113.1,240.1 113.1,234.5 L113.1,219.3 L109,219.3 L109,220.6 L108.8,220.6 Z M108.8,224.5 L108.8,231.1 C108.1,232 107.4,232.7 105.9,232.7 C104.5,232.7 102.8,231.8 102.8,227.5 C102.8,223.6 104.5,222.8 105.9,222.8 C107.4,222.8 108.4,223.7 108.8,224.5 Z M125.8,223.5 C127.1,222.8 128.3,222.3 130.1,222.3 C132,222.3 133.1,223.1 133.1,224.7 L133.1,225.8 C132.1,225.3 130.8,225 129.5,225 C126.4,225 122.8,226.4 122.8,230.5 C122.8,234.9 126.1,236.4 129,236.4 C130.2,236.4 131.9,235.9 133,234.7 L133,236.1 L137.1,236.1 L137.1,224.8 C137.1,221.2 134.6,219 130.4,219 C128.1,219 126.1,219.5 124.2,220.6 L125.8,223.5 Z M127,230.6 C127,229.1 128.1,228.2 129.8,228.2 C131,228.2 132.1,228.4 133,229 L133,231.3 C132.5,232.2 131.3,233.1 129.8,233.1 C128,233.1 127,232.1 127,230.6 Z M175.5,231.3 C174.8,232 173.7,232.7 172.2,232.7 C171.4,232.7 168.7,232.4 168.5,229.1 L178.7,229.1 L178.7,227.8 C178.7,222.5 176,219.1 171.7,219.1 C167.4,219.1 164.2,222.8 164.2,227.8 C164.2,233.1 167.3,236.5 172.1,236.5 C174.3,236.5 176.4,235.6 178,233.9 L175.5,231.3 Z M168.6,226 C168.7,224 170,222.5 171.7,222.5 C173.9,222.5 174.8,224.3 174.8,226 L168.6,226 Z M215.3,231.3 C214.6,232 213.5,232.7 212,232.7 C211.2,232.7 208.5,232.4 208.3,229.1 L218.5,229.1 L218.5,227.8 C218.5,222.5 215.8,219.1 211.5,219.1 C207.2,219.1 204,222.8 204,227.8 C204,233.1 207.1,236.5 211.9,236.5 C214.1,236.5 216.2,235.6 217.8,233.9 L215.3,231.3 Z M208.4,226 C208.5,224 209.8,222.5 211.5,222.5 C213.7,222.5 214.6,224.3 214.6,226 L208.4,226 Z M198.4,230.3 C198.4,231.8 199,232.5 200.2,232.5 C201.1,232.5 201.9,232.2 202.7,231.7 L202.2,235.6 C201.2,236.1 200,236.4 198.7,236.4 C195.4,236.4 194.2,233.6 194.2,231.3 L194.2,223.2 L191.6,223.2 L191.6,219.3 L194.2,219.3 L194.2,215 L198.3,212.9 L198.3,219.2 L202.1,219.2 L202.1,223.1 L198.3,223.1 L198.3,230.3 L198.4,230.3 Z M190.4,235.7 C189.4,236.2 188.2,236.5 186.9,236.5 C183.6,236.5 182.4,233.7 182.4,231.4 L182.4,223.3 L179.8,223.3 L179.8,219.4 L182.4,219.4 L182.4,215.1 L186.5,213 L186.5,219.3 L190,219.3 L190,223.2 L186.5,223.2 L186.5,230.2 C186.5,231.7 187.1,232.4 188.3,232.4 C189.2,232.4 190,232.1 190.8,231.6 L190.4,235.7 Z M231.1,224.1 C230.3,223.5 229.4,223.2 228.4,223.2 C226.4,223.2 225.4,224.4 225.4,227.1 L225.4,236.2 L221.3,236.2 L221.3,219.5 L225.4,219.5 L225.4,220.9 C226.4,219.6 227.6,219.1 229.1,219.1 C230.2,219.1 231.4,219.5 232.2,220.1 L231.1,224.1 Z M44.8,215.4 L44.8,217 L40.7,217 L40.7,212.9 L44.8,212.9 L44.8,215.4 Z M73.6,219.4 L77.7,219.4 L77.7,236.1 L73.6,236.1 L73.6,219.4 Z M77.7,215 L77.7,217.1 L73.6,217.1 L73.6,213 L77.7,213 L77.7,215 Z M191,249.8 C190,248.8 188.7,248.3 187.3,248.3 C183.3,248.3 180.8,251.6 180.8,256.8 C180.8,262.4 183.2,265.7 187.3,265.7 C188.7,265.7 190,265.2 191.1,264.1 L191.1,265.4 L195.2,265.4 L195.2,241.8 L191.1,243.9 L191.1,249.8 L191,249.8 Z M188.1,261.8 C186.7,261.8 185,260.9 185,256.6 C185,252.7 186.7,251.9 188.1,251.9 C189.6,251.9 190.6,252.8 191.1,253.5 L191.1,260.1 C190.4,261 189.6,261.8 188.1,261.8 Z M50.9,253.3 C50.1,252.7 49.1,252.4 48.2,252.4 C46.2,252.4 45.2,253.6 45.2,256.3 L45.2,265.4 L41,265.4 L41,248.7 L45.1,248.7 L45.1,250.1 C46.1,248.8 47.3,248.3 48.8,248.3 C49.9,248.3 51.1,248.7 51.9,249.3 L50.9,253.3 Z M18.4,248.6 L22.5,248.6 L17.8,265.3 L14.3,265.3 L12.4,258.4 C12.1,257.2 11.7,255.7 11.5,254.8 C11.3,255.5 10.9,257.5 10.6,258.6 L8.8,265.4 L5.2,265.4 L5.2,265.3 L0.5,248.7 L4.8,248.7 L6.3,254.9 C6.5,255.9 6.9,257.7 7.1,259 C7.3,257.8 7.8,256 8.1,254.8 L9.8,248.6 L13.3,248.6 L15,254.7 C15.3,255.8 15.7,257.6 16,258.9 C16.2,257.8 16.5,256.3 16.9,254.7 L18.4,248.6 Z M30.9,248.2 C26.5,248.2 23.3,251.9 23.3,256.9 C23.3,262 26.5,265.6 30.9,265.6 C35.3,265.6 38.5,261.9 38.5,256.9 C38.5,251.9 35.3,248.2 30.9,248.2 Z M30.9,261.8 C28.8,261.8 27.5,259.9 27.5,257 C27.5,254.1 28.8,252.2 30.9,252.2 C33,252.2 34.3,254.1 34.3,257 C34.3,259.9 32.9,261.8 30.9,261.8 Z M170.7,253.3 C169.9,252.7 168.9,252.4 168,252.4 C166,252.4 165,253.6 165,256.3 L165,265.4 L160.9,265.4 L160.9,248.7 L165,248.7 L165,250.1 C166,248.8 167.2,248.3 168.7,248.3 C169.8,248.3 171,248.7 171.8,249.3 L170.7,253.3 Z M138.2,248.6 L142.3,248.6 L137.6,265.3 L134,265.3 L132.1,258.4 C131.8,257.2 131.4,255.7 131.2,254.8 C131,255.5 130.6,257.5 130.3,258.6 L128.5,265.4 L124.9,265.4 L124.9,265.3 L120.2,248.7 L124.5,248.7 L126,254.9 C126.2,255.9 126.6,257.7 126.8,259 C127,257.8 127.5,256 127.8,254.8 L129.5,248.6 L133,248.6 L134.7,254.7 C135,255.8 135.4,257.6 135.7,258.9 C135.9,257.8 136.2,256.3 136.6,254.7 L138.2,248.6 Z M150.7,248.2 C146.3,248.2 143.1,251.9 143.1,256.9 C143.1,262 146.3,265.6 150.7,265.6 C155.1,265.6 158.3,261.9 158.3,256.9 C158.3,251.9 155.1,248.2 150.7,248.2 Z M150.7,261.8 C148.6,261.8 147.3,259.9 147.3,257 C147.3,254.1 148.6,252.2 150.7,252.2 C152.8,252.2 154.1,254.1 154.1,257 C154.1,259.9 152.7,261.8 150.7,261.8 Z M63.1,254.1 L68.2,265.3 L63.6,265.3 L60.1,257.5 L57.9,260.2 L57.9,265.2 L53.8,265.2 L53.8,243.6 L57.9,241.5 L57.9,255 C58.4,254.3 59,253.5 59.5,252.9 L62.8,248.6 L67.6,248.6 L63.1,254.1 Z M82.7,265.3 L78.6,265.3 L78.6,248.6 L82.7,248.6 L82.7,250 C83.7,248.9 85.2,248.2 86.9,248.2 C90.9,248.2 93,250.8 93,255.8 L93,265.2 L88.9,265.2 L88.9,256 C88.9,253.2 87.9,251.9 85.9,251.9 C83.8,251.9 82.7,253.3 82.7,256 L82.7,265.3 Z M106.1,249.8 C105.1,248.8 103.8,248.3 102.4,248.3 C98.4,248.3 95.9,251.6 95.9,256.8 C95.9,262.4 98.3,265.7 102.4,265.7 C103.9,265.7 105.1,265.2 106.2,264.1 L106.2,264.5 C106.2,266.3 106.2,268.8 100.9,268.9 L100.7,268.9 L102.2,272.1 L102.3,272.1 C107.8,272 110.4,269.3 110.4,263.7 L110.4,248.5 L106.3,248.5 L106.3,249.8 L106.1,249.8 Z M106.1,253.6 L106.1,260.2 C105.4,261.1 104.7,261.8 103.2,261.8 C101.8,261.8 100.1,260.9 100.1,256.6 C100.1,252.7 101.8,251.9 103.2,251.9 C104.7,252 105.6,252.9 106.1,253.6 Z M70.8,248.6 L74.9,248.6 L74.9,265.3 L70.8,265.3 L70.8,248.6 Z M74.9,244.1 L74.9,246.2 L70.8,246.2 L70.8,242.1 L74.9,242.1 L74.9,244.1 Z M173.7,243.7 L177.8,241.6 L177.8,265.2 L173.7,265.2 L173.7,243.7 Z M30.2,153.3 L64.2,153.3 L64.2,133.6 L30.2,133.6 L30.2,118 L67.8,118 L55.3,96.4 L2,96.4 L2,190.3 L77.1,190.3 L77.1,168.7 L30.1,168.7 L30.1,153.3 L30.2,153.3 Z M127.2,96.4 L111.2,127.1 L95.3,96.4 L64.2,96.4 L97,153.2 L97,190.3 L125.1,190.3 L125.1,153.2 L158,96.4 L127.2,96.4 Z" id="Shape" fill="#131313"></path>
        </g>
    </g>
</svg>