<?xml version="1.0" encoding="UTF-8"?>
<svg width="566px" height="271px" viewBox="0 0 566 271" version="1.1" xmlns="http://www.w3.org/2000/svg" xmlns:xlink="http://www.w3.org/1999/xlink">
    <!-- Generator: Sketch 50.2 (55047) - http://www.bohemiancoding.com/sketch -->
    <title>ey</title>
    <desc>Created with Sketch.</desc>
    <defs></defs>
    <g id="Page-1" stroke="none" stroke-width="1" fill="none" fill-rule="evenodd">
        <g id="ey" fill-rule="nonzero">
            <polygon id="Shape" fill="#FFE500" points="254.46 0.431 0.633 93.149 254.46 48.32"></polygon>
            <path d="M248.493,205.451 C248.493,200.709 245.279,198.566 243.443,197.802 C245.738,196.577 247.268,193.823 247.268,191.07 C247.268,185.409 243.443,182.196 236.711,182.196 L222.33,182.196 L222.33,216.315 L236.712,216.315 C244.056,216.468 248.493,212.337 248.493,205.451 Z M236.712,210.653 L228.603,210.653 L228.603,201.014 L236.712,201.014 C240.078,201.014 241.914,202.697 241.914,205.91 C241.914,208.817 239.925,210.653 236.712,210.653 Z M236.559,195.353 L228.603,195.353 L228.603,188.009 L236.253,188.009 C239.313,188.009 240.69,189.233 240.69,191.681 C240.843,193.364 240.078,195.353 236.559,195.353 Z M252.93,205.604 L252.93,191.528 L259.05,191.528 L259.05,205.299 C259.05,209.43 260.58,211.419 263.64,211.419 C266.701,211.419 268.23,209.43 268.23,205.299 L268.23,191.528 L274.35,191.528 L274.35,216.467 L268.23,216.467 L268.23,214.478 C266.701,216.161 264.711,217.079 262.263,217.079 C254.154,216.927 252.93,209.888 252.93,205.604 Z M346.871,216.468 L340.752,216.468 L340.752,191.529 L346.871,191.529 L346.871,193.672 C348.401,191.988 350.544,191.07 353.144,191.07 C359.111,191.07 362.324,195.049 362.324,202.392 L362.324,216.468 L356.204,216.468 L356.204,202.697 C356.204,198.566 354.827,196.577 351.767,196.577 C348.706,196.577 347.024,198.72 347.024,202.697 L347.024,216.468 L346.871,216.468 Z M286.131,203.768 L286.131,216.467 L280.011,216.467 L280.011,191.528 L286.131,191.528 L286.131,203.768 Z M291.639,184.184 L297.759,181.124 L297.759,216.467 L291.639,216.467 L291.639,184.184 Z M317.343,193.212 C315.813,191.682 313.977,190.916 311.835,190.916 C305.867,190.916 302.043,195.812 302.043,203.615 C302.043,211.878 305.715,216.927 311.682,216.927 C313.824,216.927 315.66,216.161 317.343,214.479 L317.343,216.315 L323.463,216.315 L323.463,180.972 L317.343,184.032 L317.343,193.212 Z M313.059,211.265 C310.917,211.265 308.316,209.888 308.316,203.615 C308.316,197.802 310.764,196.73 312.906,196.73 C315.201,196.73 316.578,198.107 317.344,199.178 L317.344,208.97 C316.425,210.041 315.354,211.265 313.059,211.265 Z M451.524,190.916 C449.535,190.916 447.546,191.835 446.016,193.212 L446.016,181.736 L439.896,184.797 L439.896,216.315 L446.016,216.315 L446.016,214.479 C447.546,216.009 449.535,216.927 451.677,216.927 C457.797,216.927 461.316,212.031 461.316,203.615 C461.316,195.812 457.644,190.916 451.524,190.916 Z M450.452,196.577 C452.747,196.577 455.043,198.413 455.043,203.463 C455.043,208.664 453.513,211.112 450.452,211.112 C448.157,211.112 446.628,209.582 446.015,208.817 L446.015,199.025 C447.087,197.495 448.616,196.577 450.452,196.577 Z M381.603,193.212 C380.073,191.682 378.237,190.916 376.095,190.916 C370.128,190.916 366.303,195.812 366.303,203.615 C366.303,211.878 369.975,216.927 375.942,216.927 C378.085,216.927 380.073,216.161 381.603,214.479 L381.603,215.091 C381.603,217.845 381.603,221.517 373.647,221.67 L373.341,221.67 L375.483,226.566 L375.636,226.566 C383.744,226.413 387.723,222.435 387.723,214.173 L387.723,191.528 L381.603,191.528 L381.603,193.212 Z M381.603,199.025 L381.603,208.817 C380.685,210.041 379.461,211.265 377.166,211.265 C375.023,211.265 372.575,209.888 372.575,203.615 C372.575,197.802 375.023,196.73 377.166,196.73 C379.461,196.577 380.838,197.954 381.603,199.025 Z M406.848,197.648 C408.837,196.577 410.673,195.965 413.274,195.965 C416.181,195.965 417.712,197.189 417.712,199.484 L417.712,201.168 C416.335,200.402 414.192,199.943 412.357,199.943 C407.767,199.943 402.412,202.086 402.412,208.052 C402.412,214.478 407.462,216.926 411.593,216.926 C413.276,216.926 415.877,216.314 417.56,214.324 L417.56,216.313 L423.68,216.313 L423.68,199.483 C423.68,194.129 419.855,190.762 413.581,190.762 C410.216,190.762 407.155,191.527 404.248,193.21 L406.848,197.648 Z M408.684,208.205 C408.684,206.063 410.214,204.686 412.968,204.686 C414.804,204.686 416.334,204.992 417.864,205.91 L417.864,209.276 C417.099,210.653 415.263,211.878 412.968,211.878 C410.214,211.878 408.684,210.5 408.684,208.205 Z M481.205,209.123 C480.135,210.194 478.604,211.266 476.309,211.266 C475.085,211.266 471.107,210.807 470.801,205.758 L486.101,205.758 L486.101,203.922 C486.101,195.966 481.97,190.916 475.697,190.916 C469.271,190.916 464.528,196.425 464.528,203.922 C464.528,211.725 469.118,216.927 476.309,216.927 C479.522,216.927 482.735,215.702 485.03,212.948 L481.205,209.123 Z M470.802,201.32 C470.954,198.26 472.79,196.118 475.392,196.118 C478.605,196.118 479.982,198.72 480.135,201.32 L470.802,201.32 Z M540.57,209.123 C539.499,210.194 537.969,211.266 535.674,211.266 C534.449,211.266 530.472,210.807 530.165,205.758 L545.466,205.758 L545.466,203.922 C545.466,195.966 541.334,190.916 535.062,190.916 C528.636,190.916 523.893,196.425 523.893,203.922 C523.893,211.725 528.483,216.927 535.674,216.927 C538.887,216.927 542.1,215.702 544.548,212.948 L540.57,209.123 Z M530.166,201.32 C530.318,198.26 532.154,196.118 534.756,196.118 C537.969,196.118 539.346,198.72 539.498,201.32 L530.166,201.32 Z M515.324,207.746 C515.324,209.889 516.09,211.112 517.926,211.112 C519.15,211.112 520.527,210.653 521.598,210.041 L520.832,215.855 C519.455,216.62 517.619,217.079 515.631,217.079 C510.735,217.079 509.052,212.948 509.052,209.43 L509.052,197.343 L505.38,197.343 L505.38,191.529 L509.204,191.529 L509.204,185.103 L515.324,182.043 L515.324,191.528 L520.985,191.528 L520.985,197.342 L515.324,197.342 L515.324,207.746 Z M503.391,215.855 C502.014,216.62 500.178,217.079 498.189,217.079 C493.293,217.079 491.61,212.948 491.61,209.43 L491.61,197.343 L487.785,197.343 L487.785,191.529 L491.61,191.529 L491.61,185.103 L497.73,182.043 L497.73,191.528 L502.932,191.528 L502.932,197.342 L497.73,197.342 L497.73,207.899 C497.73,210.041 498.495,211.265 500.331,211.265 C501.556,211.265 502.933,210.806 504.004,210.194 L503.391,215.855 Z M564.132,198.413 C562.945803,197.507872 561.492033,197.023399 560,197.036 C556.94,197.036 555.563,198.872 555.563,202.85 L555.563,216.314 L549.443,216.314 L549.443,191.376 L555.563,191.376 L555.563,193.518 C557.093,191.682 558.929,190.764 561.071,190.764 C562.755,190.764 564.591,191.375 565.661,192.294 L564.132,198.413 Z M286.131,184.797 L286.131,187.857 L280.011,187.857 L280.011,181.737 L286.131,181.737 L286.131,184.797 Z M328.971,191.528 L335.091,191.528 L335.091,216.467 L328.971,216.467 L328.971,191.528 Z M335.091,184.797 L335.091,187.857 L328.971,187.857 L328.971,181.737 L335.091,181.737 L335.091,184.797 Z M504.156,236.816 C502.627,235.286 500.79,234.521 498.648,234.521 C492.681,234.521 488.856,239.417 488.856,247.22 C488.856,255.482 492.528,260.531 498.495,260.531 C500.638,260.531 502.474,259.766 504.156,258.084 L504.156,259.92 L510.276,259.92 L510.276,224.576 L504.156,227.637 L504.156,236.816 Z M499.871,254.87 C497.729,254.87 495.129,253.493 495.129,247.221 C495.129,241.407 497.576,240.336 499.719,240.336 C502.014,240.336 503.391,241.713 504.156,242.783 L504.156,252.575 C503.238,253.493 502.166,254.87 499.871,254.87 Z M295.157,242.018 C293.971254,241.112742 292.517751,240.628241 291.026,240.641 C287.966,240.641 286.589,242.477 286.589,246.454 L286.589,259.919 L280.469,259.919 L280.469,234.98 L286.589,234.98 L286.589,237.122 C288.118,235.286 289.954,234.368 292.097,234.368 C293.78,234.368 295.616,234.98 296.687,235.898 L295.157,242.018 Z M246.656,234.98 L252.776,234.98 L245.738,259.919 L240.384,259.919 L237.63,249.515 C237.171,247.679 236.559,245.536 236.253,244.16 C235.946,245.231 235.335,248.291 234.876,249.821 L232.122,259.92 L226.92,259.92 L219.882,234.981 L226.154,234.981 L228.45,244.314 C228.756,245.844 229.368,248.598 229.674,250.434 C229.98,248.598 230.745,245.844 231.204,244.161 L233.805,234.981 L239.007,234.981 L241.608,244.161 C242.067,245.845 242.679,248.445 243.138,250.434 C243.444,248.904 243.903,246.455 244.515,244.161 L246.656,234.98 Z M265.323,234.521 C258.745,234.521 254.002,240.029 254.002,247.526 C254.002,255.023 258.745,260.531 265.323,260.531 C271.902,260.531 276.645,255.023 276.645,247.526 C276.645,239.877 271.902,234.521 265.323,234.521 Z M265.323,254.718 C262.263,254.718 260.274,251.811 260.274,247.527 C260.274,243.09 262.263,240.337 265.323,240.337 C268.384,240.337 270.373,243.243 270.373,247.527 C270.373,251.811 268.383,254.718 265.323,254.718 Z M473.862,242.018 C472.676254,241.112742 471.222751,240.628241 469.731,240.641 C466.671,240.641 465.294,242.477 465.294,246.454 L465.294,259.919 L459.174,259.919 L459.174,234.98 L465.294,234.98 L465.294,237.122 C466.823,235.286 468.659,234.368 470.802,234.368 C472.485,234.368 474.321,234.98 475.392,235.898 L473.862,242.018 Z M425.514,234.98 L431.634,234.98 L424.596,259.919 L419.241,259.919 L416.487,249.515 C416.028,247.679 415.416,245.536 415.11,244.16 C414.804,245.231 414.192,248.291 413.733,249.821 L410.979,259.92 L405.624,259.92 L405.624,259.767 L398.587,234.981 L404.859,234.981 L407.154,244.314 C407.461,245.844 408.072,248.598 408.379,250.434 C408.685,248.598 409.449,245.844 409.908,244.161 L412.51,234.981 L417.712,234.981 L420.313,244.161 C420.772,245.845 421.384,248.445 421.843,250.434 C422.149,248.904 422.608,246.455 423.22,244.161 L425.514,234.98 Z M444.027,234.521 C437.448,234.521 432.705,240.029 432.705,247.526 C432.705,255.023 437.448,260.531 444.027,260.531 C450.606,260.531 455.349,255.023 455.349,247.526 C455.349,240.029 450.606,234.521 444.027,234.521 Z M444.027,254.718 C440.967,254.718 438.978,251.964 438.978,247.527 C438.978,243.09 440.967,240.337 444.027,240.337 C447.088,240.337 449.076,243.243 449.076,247.527 C449.076,251.811 447.087,254.718 444.027,254.718 Z M313.518,243.242 L321.168,259.92 L314.436,259.92 L309.234,248.291 L306.021,252.423 L306.021,259.92 L299.901,259.92 L299.901,227.789 L306.021,224.729 L306.021,244.619 C306.761546,243.580886 307.526764,242.560596 308.316,241.559 L313.212,235.133 L320.25,235.133 L313.518,243.242 Z M342.74,259.92 L336.62,259.92 L336.62,234.98 L342.74,234.98 L342.74,237.122 C344.27,235.439 346.412,234.521 349.013,234.521 C354.98,234.521 358.193,238.5 358.193,245.843 L358.193,259.919 L352.073,259.919 L352.073,246.148 C352.073,242.017 350.696,240.028 347.636,240.028 C344.575,240.028 342.893,242.171 342.893,246.148 L342.893,259.919 L342.74,259.919 L342.74,259.92 Z M377.472,236.816 C375.942,235.286 374.106,234.521 371.964,234.521 C365.996,234.521 362.172,239.417 362.172,247.22 C362.172,255.482 365.844,260.531 371.811,260.531 C373.953,260.531 375.942,259.766 377.472,258.084 L377.472,258.695 C377.472,261.449 377.472,265.121 369.516,265.274 L369.209,265.274 L371.352,270.17 L371.505,270.17 C379.613,270.017 383.592,266.038 383.592,257.776 L383.592,235.132 L377.472,235.132 L377.472,236.816 Z M377.472,242.631 L377.472,252.423 C376.554,253.647 375.329,254.87 373.034,254.87 C370.892,254.87 368.444,253.493 368.444,247.221 C368.444,241.407 370.892,240.336 373.034,240.336 C375.329,240.182 376.706,241.559 377.472,242.631 Z M324.84,234.98 L330.96,234.98 L330.96,259.92 L324.84,259.92 L324.84,234.98 Z M330.96,228.401 L330.96,231.462 L324.84,231.462 L324.84,225.342 L330.96,225.342 L330.96,228.401 Z M478.451,227.789 L484.571,224.729 L484.571,259.92 L478.451,259.92 L478.451,227.789 Z M41.331,209.276 L87.689,209.276 L87.689,182.348 L41.331,182.348 L41.331,161.234 L92.738,161.234 L75.756,131.552 L2.928,131.552 L2.928,259.92 L105.591,259.92 L105.591,230.39 L41.331,230.39 L41.331,209.276 Z M173.982,131.552 L152.256,173.474 L130.529,131.552 L87.842,131.552 L132.671,209.276 L132.671,259.92 L171.074,259.92 L171.074,209.276 L215.902,131.552 L173.982,131.552 Z" id="Shape" fill="#FFFFFF"></path>
        </g>
    </g>
</svg>