<svg width="110" height="110" viewBox="0 0 110 110" xmlns="http://www.w3.org/2000/svg"><g fill-rule="nonzero" fill="none"><path fill="#9D0B0F" d="M0 0h110v110H0z"/><path d="M23.137 100.393l-.22 6.985H3.025v-1.118c1.247 0 1.925-.22 2.273-.55.679-.678.77-1.118.77-12.815 0-11.715-.128-12.1-.806-12.778-.349-.349-.99-.605-2.237-.605v-1.155H17.05v1.155c-1.338-.037-2.402.165-2.75.513-.678.678-.77 1.595-.77 13.292v8.396c0 3.685.257 4.034 2.878 4.034h1.064c2.236 0 3.611-2.567 4.51-4.767l.165-.605h.99" fill="#FFF"/><path d="M18.04 85.855l-.092-.935c3.044-.128 6.344-1.98 7.077-4.455.165-.513.092-1.247-.348-1.247-.807 0-1.155.807-3.52.807-3.135 0-4.162-2.53-4.162-3.905 0-2.567 1.852-4.583 4.638-4.583 3.264 0 5.537 2.658 5.537 6.398 0 4.785-4.968 7.92-9.13 7.92" fill="#E49F24"/><path d="M48.4 101.255l-.22 6.123H27.848v-1.118c1.247 0 1.925-.22 2.274-.55.678-.678.77-1.118.77-12.815 0-11.715-.092-12.173-.77-12.87-.349-.348-1.027-.513-2.274-.513v-1.155H48.18l.22 6.123h-.935l-.128-.605c-.477-2.182-2.182-3.85-4.712-3.85h-4.253v11.458h2.695c3.263 0 4.546-.77 5.151-3.52h.935v8.709h-.935c-.605-2.695-1.888-3.557-5.151-3.557h-2.695v8.617c0 3.685.256 4.033 2.878 4.033h1.632c2.016 0 3.776-1.723 4.418-3.905l.165-.605h.935M62.37 93.885c-2.182 0-2.915-1.668-2.915-2.823 0-1.339.605-2.53 1.723-2.879-.256-.165-.806-.385-1.54-.385-2.31 0-3.776 2.824-3.776 9.57 0 5.225 1.338 8.232 4.711 8.232 1.925 0 3.905-1.595 4.254-2.017l.513.514c-1.192 2.053-2.915 4.07-7.297 4.07-7.626 0-9.13-6.949-9.13-10.469 0-5.316 2.494-11.33 10.084-11.33 4.418 0 6.435 2.145 6.435 4.419-.019 2.145-1.687 3.098-3.062 3.098" fill="#FFF"/><path d="M89.008 107.342h-9.57v-13.86c0-2.695-.348-3.85-2.108-3.85-2.145 0-3.08 1.595-3.208 2.695v-.037 1.98c.036 10.542 0 10.725.641 11.367.294.293.935.513 2.054.513v1.192h-6.6l-5.665.036v-1.228c1.118 0 1.76-.22 2.053-.513.642-.642.605-3.685.605-14.245v-8.269c0-2.365-.092-2.273-1.54-2.951l-1.192-.422v-.77l9.607-1.888.037 12.301c.733-1.191 2.438-3.171 6.655-3.171 3.208 0 5.536 2.145 5.536 6.215v1.796c0 10.542 0 10.762.642 11.404.293.293.935.513 2.053.513v1.192" fill="#FFF"/><path d="M97.753 108.112c-4.711 0-9.991-3.3-9.991-10.67 0-8.672 5.995-11.074 10.285-11.074 4.675 0 10.028 3.044 10.028 10.634.018 6.398-4.272 11.11-10.322 11.11zm.312-20.277c-2.31 0-3.172 2.438-3.3 9.093-.165 7.554 1.247 9.864 3.135 9.864 1.852 0 3.208-1.889 3.208-9.699 0-6.856-1.026-9.258-3.043-9.258z" fill="#FFF"/></g></svg>