<svg width="200" height="30" viewBox="0 0 200 30" xmlns="http://www.w3.org/2000/svg"><g fill="#FFF" fill-rule="evenodd"><path d="M19.26 16.848l-6.628-6.603a2.09 2.09 0 0 0-1.507-.622H0v4.215h12.18c.927 0 1.8.36 2.457 1.014a3.435 3.435 0 0 1 1.017 2.449v12.133h4.232V18.351c0-.577-.221-1.11-.625-1.503M30.92 9.623c-.578 0-1.114.22-1.509.623l-6.628 6.603a2.077 2.077 0 0 0-.624 1.502v11.083h4.232V17.301a3.472 3.472 0 0 1 3.474-3.463h12.18V9.623H30.921M71.01 9.057c-2.013 0-4.09 1.449-5.05 3.522l-.033.07h-.27V9.541H62.5v19.892h3.388v-9.042c0-5.067 2.162-8.34 5.51-8.34.723 0 1.352.115 1.897.317V9.31c-.724-.148-1.256-.254-2.285-.254M175.014 19.574v1.853c0 1.541-.497 2.857-1.436 3.803-.994 1.002-2.444 1.532-4.193 1.532-1.064 0-2.171-.442-2.887-1.152a3.023 3.023 0 0 1-.916-2.19c0-3.541 4.885-3.923 6.985-3.923.391 0 .787.02 1.17.038.38.019.773.039 1.157.039h.12zm1.45-8.64c-1.275-1.263-3.196-1.877-5.875-1.877-2.206 0-4.358.604-6.397 1.788l.175 2.812c1.496-1.191 3.63-1.928 5.64-1.928 1.718 0 2.946.389 3.753 1.19.855.847 1.254 2.145 1.254 4.082v.124l-.126-.007c-1.442-.078-2.461-.077-3.873-.077-2.407 0-5.646.662-7.519 2.518-1.038 1.029-1.564 2.321-1.564 3.84 0 1.781.519 3.198 1.54 4.21 1.203 1.194 3.141 1.825 5.604 1.825 3.54 0 5.397-2.052 6.032-2.935l.034-.05h.259v2.504h3.008v-11.89c0-2.827-.636-4.831-1.945-6.129zM85.81 19.574v1.853c0 1.541-.497 2.857-1.436 3.803-.995 1.002-2.444 1.532-4.193 1.532-1.064 0-2.171-.442-2.889-1.152a3.027 3.027 0 0 1-.915-2.19c0-3.541 4.885-3.923 6.985-3.923.391 0 .787.02 1.17.038.38.019.773.039 1.159.039h.118zm1.45-8.64c-1.275-1.263-3.197-1.877-5.876-1.877-2.205 0-4.357.604-6.398 1.788l.176 2.812c1.496-1.191 3.63-1.928 5.64-1.928 1.718 0 2.946.389 3.753 1.19.856.847 1.254 2.145 1.254 4.082v.124l-.125-.007c-1.443-.078-2.462-.077-3.874-.077-2.407 0-5.645.662-7.519 2.518-1.038 1.029-1.564 2.321-1.564 3.84 0 1.781.518 3.198 1.539 4.21 1.203 1.194 3.142 1.825 5.605 1.825 3.542 0 5.399-2.052 6.032-2.935l.035-.05h.258v2.504h3.009v-11.89c0-2.827-.637-4.831-1.945-6.129zM108.08 10.907c-1.232-1.229-3.012-1.85-5.29-1.85-2.856 0-5.477 1.44-6.523 3.581l-.033.068h-.275V9.548h-3.345v19.886h3.463v-9.193c0-2.58.506-4.626 1.506-6.08 1.08-1.572 2.685-2.368 4.778-2.368 3.17.193 4.403 2.244 4.403 7.32v10.321h3.463V17.57c0-3.004-.722-5.245-2.146-6.663M141.544 17.76c-1.914-.847-3.723-1.647-3.723-3.511 0-1.531 1.449-2.52 3.689-2.52.817 0 2.865.444 3.827.94l.291-2.867c-1.535-.448-2.9-.745-4.514-.745-2.315 0-4.193.636-5.435 1.84-1.053 1.022-1.588 2.398-1.588 4.088 0 2.992 2.667 4.257 5.019 5.37 1.928.916 3.75 1.78 3.75 3.461 0 .762-.258 1.4-.767 1.893-.98.95-2.536 1.053-3.16 1.053-.99 0-3.01-.412-4.536-1.314l-.183 2.96c1.804.905 3.848 1.026 5.433 1.026 1.872 0 3.58-.518 4.81-1.458 1.396-1.065 2.134-2.638 2.134-4.547 0-3.434-2.682-4.622-5.047-5.668M158.39 27.278c-.853 0-1.638-.313-2.21-.881-.674-.67-1.03-1.648-1.03-2.826V12.45h5.33V9.728h-5.33V3.962l-3.45 1.1v4.666h-4.54v2.722h4.54v11.87c0 1.802.485 3.199 1.443 4.151 1.02 1.015 2.573 1.529 4.615 1.529 1.164 0 2.313-.313 3.037-.517V26.65c-.71.41-1.516.628-2.405.628M196.573 19.183c0 2.4-.827 4.653-2.213 6.027-1.02 1.012-2.292 1.525-3.783 1.525-1.344 0-2.508-.49-3.462-1.46-1.682-1.712-2.226-4.416-2.18-6.206-.056-2.53.664-4.74 1.971-6.067.95-.963 2.171-1.45 3.632-1.45 1.508 0 2.798.52 3.831 1.545 1.401 1.39 2.204 3.61 2.204 6.086zm0-19.183v12.025h-.264l-.035-.057c-1.291-2.067-3.485-3.114-6.52-3.114-2.318 0-4.242.742-5.72 2.208-1.795 1.782-2.784 4.52-2.784 7.711 0 3.543 1.082 6.649 2.968 8.52 1.431 1.42 3.282 2.141 5.497 2.141 3.385 0 5.688-1.651 6.716-3.196l.036-.054h.262v2.764H200V0h-3.427zM128.391 19.183c0 2.4-.826 4.653-2.212 6.027-1.02 1.012-2.293 1.525-3.785 1.525-1.342 0-2.507-.49-3.461-1.46-1.682-1.712-2.227-4.416-2.182-6.206-.055-2.53.665-4.74 1.974-6.067.949-.963 2.17-1.45 3.63-1.45 1.51 0 2.798.52 3.832 1.545 1.401 1.39 2.204 3.61 2.204 6.086zm0-19.183v12.025h-.265l-.035-.057c-1.29-2.067-3.485-3.114-6.52-3.114-2.317 0-4.242.742-5.72 2.208-1.795 1.782-2.783 4.52-2.783 7.711 0 3.543 1.081 6.649 2.967 8.52 1.432 1.42 3.282 2.141 5.499 2.141 3.384 0 5.688-1.651 6.715-3.196l.036-.054h.262v2.764h3.271V0h-3.427z"/><path d="M15.466 29.434h4.42V18.365c0-.616-.245-1.172-.653-1.569l-6.547-6.523a2.192 2.192 0 0 0-1.575-.65H0v4.402h12.153a3.308 3.308 0 0 1 3.313 3.302v12.107M26.578 29.434H22.16V18.365c0-.616.246-1.172.652-1.569l6.548-6.523c.398-.406.958-.65 1.576-.65h11.11v4.402H29.892a3.309 3.309 0 0 0-3.314 3.302v12.107M62.5 9.536h3.495v3.07h.08c.998-2.068 3.154-3.55 5.312-3.55 1.119 0 1.678.118 2.477.274v3.276c-.68-.273-1.438-.35-2.077-.35-3.356 0-5.553 3.12-5.553 8.122v9.056H62.5V9.536M175.272 21.745c0 3.013-1.938 5.301-5.618 5.301-1.7 0-3.758-1.144-3.758-3.276 0-3.551 4.985-3.867 7.003-3.867.791 0 1.582.079 2.373.079v1.763zm-10.843-7.663c1.507-1.275 3.762-2.071 5.859-2.071 3.718 0 4.984 1.793 4.984 5.237-1.464-.079-2.492-.079-3.956-.079-3.838 0-9.384 1.562-9.384 6.58 0 4.386 3.053 6.251 7.406 6.251 3.402 0 5.38-1.826 6.25-3.032h.08v2.543h3.31v-12.2c0-5.456-2.327-8.254-8.097-8.254-2.572 0-4.788.776-6.65 1.865l.198 3.16zM86.068 21.745c0 3.013-1.94 5.301-5.618 5.301-1.702 0-3.76-1.144-3.76-3.276 0-3.551 4.986-3.867 7.004-3.867.791 0 1.583.079 2.374.079v1.763zm-10.843-7.663c1.506-1.275 3.761-2.071 5.858-2.071 3.72 0 4.985 1.793 4.985 5.237-1.464-.079-2.493-.079-3.957-.079-3.837 0-9.384 1.562-9.384 6.58 0 4.386 3.053 6.251 7.406 6.251 3.402 0 5.382-1.826 6.25-3.032h.08v2.543h3.31v-12.2c0-5.456-2.325-8.254-8.097-8.254-2.571 0-4.787.776-6.65 1.865l.199 3.16zM92.614 9.542h3.538v3.122h.077c1.097-2.253 3.762-3.607 6.543-3.607 5.161 0 7.455 3.177 7.455 8.532v11.845h-3.655v-10.32c0-4.652-1.018-6.92-4.23-7.115-4.193 0-6.074 3.361-6.074 8.23v9.205h-3.654V9.542M134.403 25.63c1.442.943 3.507 1.416 4.557 1.416 1.673 0 3.732-.708 3.732-2.874 0-3.66-8.601-3.345-8.601-8.973 0-4.16 3.08-6.142 7.008-6.142 1.711 0 3.114.349 4.556.789l-.312 3.188c-.818-.511-3-1.023-3.855-1.023-1.866 0-3.5.787-3.5 2.44 0 4.094 8.603 2.912 8.603 9.328 0 4.277-3.392 6.221-6.93 6.221-1.867 0-3.777-.194-5.453-1.089l.195-3.282M160.485 12.073h-5.238v10.882c0 2.302 1.397 3.55 3.066 3.55 1.125 0 1.94-.352 2.482-.703v3.093c-.814.23-1.94.539-3.103.539-3.756 0-6.071-1.773-6.071-5.738V12.073h-4.462v-2.93h4.462V4.561l3.626-1.165v5.747h5.238v2.93M185.123 19.397c-.077-3.68 1.47-7.476 5.416-7.476 3.945 0 5.841 3.837 5.841 7.595 0 3.362-1.702 7.515-5.803 7.515-3.906 0-5.531-4.469-5.454-7.634zm11.411 10.112H200V0h-3.62v12.158h-.077c-1.122-1.84-3.095-3.206-6.538-3.206-5.726 0-8.515 4.744-8.515 10.15 0 5.517 2.518 10.898 8.477 10.898 3.52 0 5.763-1.797 6.73-3.286h.077v2.795zM116.941 19.397c-.077-3.68 1.47-7.476 5.415-7.476 3.947 0 5.842 3.837 5.842 7.595 0 3.362-1.702 7.515-5.803 7.515-3.907 0-5.531-4.469-5.454-7.634zm11.411 10.112h3.466V0h-3.62v12.158h-.077c-1.122-1.84-3.095-3.206-6.538-3.206-5.726 0-8.515 4.744-8.515 10.15 0 5.517 2.517 10.898 8.477 10.898 3.52 0 5.764-1.797 6.73-3.286h.077v2.795z"/></g></svg>
