<svg width="100" height="100" viewBox="0 0 100 100" xmlns="http://www.w3.org/2000/svg"><title>logo</title><g fill="none"><path fill="#18457C" d="M0 100h100V0H0z"/><path d="M18.329 10h-2.773l.04 18.988c0 3.234.246 3.234 2.733 3.234 4.2 0 7.42-3.045 7.217-11.731C25.342 12.106 21.795 10 18.33 10zm-.022 24.444H6.667v-.98c1.136 0 1.763-.19 2.076-.491.629-.605.706-.982.706-11.288 0-10.305-.077-10.72-.706-11.324-.313-.302-.94-.453-2.076-.453v-1.02h11.64c9.29 0 13.915 4.493 13.915 11.93 0 8.908-5.291 13.626-13.915 13.626z" fill="#B0CFE7"/><path d="M48.889 29.046l-.191 5.398H31.11v-.98c1.112 0 1.725-.19 2.032-.491.612-.605.69-.982.69-11.288 0-10.305-.078-10.72-.69-11.324-.307-.302-.92-.453-2.032-.453v-1.02h17.587l.19 5.399h-1.11l-.039-.528c-.153-1.963-1.417-3.21-3.678-3.21h-4.138v9.815h2.798c2.912 0 3.717-.68 3.946-3.02h1.11v7.663h-1.11c-.23-2.34-1.034-3.02-3.946-3.02h-2.798v7.475c0 3.246.23 3.36 2.567 3.36h1.61c1.992 0 3.448-1.36 3.602-3.247l.037-.529h1.15" fill="#B0CFE7"/><path d="M27.778 40.954h-1.036l-.04-.718c-.191-1.283-.959-3.02-3.684-3.02h-2.763v16.61c0 5.851.614 6.342 3.454 6.342v.943H10.735v-.943c2.84 0 3.455-.49 3.455-6.342v-16.61h-2.764c-2.724 0-3.492 1.737-3.685 3.02l-.039.718H6.667l.077-5.398H27.7l.077 5.398m11.112 20.157H27.778v-.981c1.074 0 1.667-.189 1.963-.491.592-.604.667-.98.667-11.286s-.075-10.721-.667-11.325c-.296-.303-.89-.454-1.963-.454v-1.018h11.11v1.018c-1.074 0-1.667.151-1.963.454-.593.604-.667.982-.667 11.286 0 10.306.074 10.721.667 11.325.296.302.89.49 1.964.49v.982M52.222 36.6c-1.147 0-1.78.156-2.097.466-.633.62-.712 1.007-.712 11.58v12.318c0 8.056-3.838 10.147-8.624 10.147h-1.9v-1.046c3.718 0 4.154-2.788 4.195-8.559 0 0 .038-1.472.038-7.475v-5.345c0-10.574-.038-11-.672-11.62-.317-.31-.95-.465-2.097-.465v-1.045h11.87V36.6" fill="#FFF"/><path d="M63.883 36.667h-2.772l.04 18.988c0 3.234.245 3.234 2.732 3.234 4.2 0 7.422-3.046 7.219-11.732-.204-8.385-3.751-10.49-7.219-10.49zm-.02 24.444h-11.64v-.981c1.137 0 1.763-.189 2.077-.491.628-.604.706-.98.706-11.286s-.078-10.721-.706-11.325c-.314-.303-.94-.454-2.078-.454v-1.018h11.641c9.29 0 13.915 4.491 13.915 11.928 0 8.908-5.291 13.627-13.915 13.627z" fill="#FFF"/></g></svg>