<svg width="189" height="28" viewBox="0 0 189 28" xmlns="http://www.w3.org/2000/svg"><g fill="#0074B0" fill-rule="evenodd"><path d="M14.778 28H19V17.385c0-.59-.235-1.125-.624-1.505l-6.255-6.256A2.088 2.088 0 0 0 10.615 9H0v4.222h11.612a3.166 3.166 0 0 1 3.166 3.167V28M25.222 28H21V17.385c0-.59.234-1.125.624-1.505l6.256-6.256c.38-.39.914-.624 1.504-.624H40v4.222H28.39a3.167 3.167 0 0 0-3.168 3.167V28M59 8.447h3.384v2.862h.076C63.427 9.382 65.515 8 67.602 8c1.083 0 1.624.11 2.398.254v3.055c-.658-.254-1.392-.327-2.011-.327-3.248 0-5.375 2.91-5.375 7.576V27H59V8.447M154.344 12.8c1.413-1.217 3.531-1.98 5.5-1.98 3.49 0 4.678 1.713 4.678 5.002-1.374-.075-2.34-.075-3.712-.075-3.603 0-8.81 1.493-8.81 6.284 0 4.188 2.866 5.969 6.952 5.969 3.195 0 5.05-1.744 5.866-2.896h.075v2.43H168V15.88C168 10.672 165.818 8 160.4 8c-2.414 0-4.493.742-6.24 1.781l.184 3.02zm10.178 7.318c0 2.876-1.82 5.061-5.273 5.061-1.597 0-3.528-1.093-3.528-3.127 0-3.393 4.68-3.694 6.573-3.694.743 0 1.486.076 2.228.076v1.684z"/><path d="M70.344 12.8c1.414-1.217 3.53-1.98 5.5-1.98 3.49 0 4.679 1.713 4.679 5.002-1.375-.075-2.34-.075-3.715-.075-3.602 0-8.808 1.493-8.808 6.284C68 26.219 70.865 28 74.951 28c3.195 0 5.052-1.744 5.867-2.896h.075v2.43H84V15.88C84 10.672 81.818 8 76.4 8c-2.414 0-4.493.742-6.242 1.781l.186 3.02zm10.179 7.318c0 2.876-1.82 5.061-5.274 5.061-1.597 0-3.528-1.093-3.528-3.127 0-3.393 4.68-3.694 6.574-3.694.742 0 1.484.076 2.228.076v1.684zM87 8.454h3.414v2.91h.076C91.548 9.264 94.12 8 96.804 8c4.982 0 7.196 2.963 7.196 7.956V27h-3.527v-9.622c0-4.337-.984-6.452-4.085-6.635-4.045 0-5.86 3.136-5.86 7.676V27H87V8.454M126.3 23.826c1.384.902 3.367 1.353 4.375 1.353 1.605 0 3.583-.677 3.583-2.744 0-3.496-8.258-3.195-8.258-8.569C126 9.893 128.956 8 132.727 8c1.643 0 2.99.334 4.374.754l-.298 3.045c-.786-.49-2.88-.978-3.701-.978-1.792 0-3.36.753-3.36 2.33 0 3.909 8.258 2.782 8.258 8.908 0 4.085-3.256 5.941-6.654 5.941-1.791 0-3.624-.185-5.233-1.04l.186-3.134M151.704 11.331h-4.993V21.78c0 2.21 1.33 3.408 2.922 3.408 1.073 0 1.85-.338 2.367-.675v2.97c-.777.222-1.848.518-2.959.518-3.581 0-5.788-1.702-5.788-5.51V11.332H139V8.518h4.253v-4.4L146.711 3v5.518h4.993v2.813M185.672 27.541H189V0h-3.475v11.347h-.075c-1.077-1.716-2.97-2.993-6.275-2.993-5.498 0-8.175 4.429-8.175 9.473 0 5.15 2.416 10.173 8.137 10.173 3.38 0 5.535-1.676 6.462-3.067h.073v2.608zm-10.953-9.437c-.076-3.434 1.41-6.979 5.197-6.979 3.79 0 5.609 3.582 5.609 7.09 0 3.138-1.635 7.014-5.572 7.014-3.75 0-5.31-4.172-5.234-7.125zM120.672 27.541H124V0h-3.474v11.347h-.076c-1.077-1.716-2.97-2.993-6.276-2.993-5.497 0-8.174 4.429-8.174 9.473 0 5.15 2.416 10.173 8.138 10.173 3.379 0 5.532-1.676 6.461-3.067h.073v2.608zm-10.67-9.613c-.074-3.409 1.437-6.928 5.291-6.928 3.855 0 5.707 3.555 5.707 7.037 0 3.115-1.663 6.963-5.669 6.963-3.817 0-5.403-4.142-5.328-7.072z"/></g></svg>
