<svg height="13" viewBox="0 0 10 13" width="10" xmlns="http://www.w3.org/2000/svg"><path d="m102.166626 10.4997847c-.009028-.1045334-.051901-.2440913-.120366-.3223685l-3.6111112-4.17544646c-.1575215-.21818389-.4822977-.21746179-.6821871-.03901826-.1998895.17844354-.2151284.49550428-.0400376.68375518l2.9114609 3.36184984h-10.9762816c-.2658981 0-.4814815.2199229-.4814815.4912282s.2155834.4912281.4814815.4912281h10.9762816l-2.9114585 3.3618425c-.1910519.1882386-.1373234.5110738.0625685.6895124.1998895.1784386.5021347.1657158.6596562-.0447755l3.6111118-4.1754391c.096515-.1066702.114929-.2224281.120363-.3223684z" fill="#fff" transform="matrix(0 1 -1 0 15.166626 -89.166622)"/></svg>