<svg height="16" viewBox="0 0 16 16" width="16" xmlns="http://www.w3.org/2000/svg"><path d="m15.1173333 0h-14.23466663c-.48733334 0-.88266667.39533333-.88266667.88266667v14.23466663c0 .488.39533333.8826667.88266667.8826667h7.66266666v-6.196h-2.086v-2.414h2.086v-1.78333333c0-2.066 1.26266667-3.19 3.10599997-3.19.8833334 0 1.6426667.06466666 1.864.094v2.16h-1.2806666c-1 0-1.1946667.48066666-1.1946667 1.18066666v1.54066667h2.3893333l-.31 2.42h-2.0793333v6.188h4.0766667c.4886666 0 .8833333-.3946667.8833333-.8826667v-14.23466663c0-.48733334-.3946667-.88266667-.8826667-.88266667" fill="#222120" fill-rule="evenodd" opacity=".752744"/></svg>