<svg height="30" viewBox="0 0 30 30" width="30" xmlns="http://www.w3.org/2000/svg"><g fill="none" fill-rule="evenodd" transform="matrix(-1 0 0 -1 30 30)"><rect fill="none" height="29" rx="14.5" stroke="#222120" width="29" x=".5" y=".5"/><path d="m21.000004 14.6664066c-.0090278-.1045334-.0519013-.2440913-.1203656-.3223685l-3.6111115-4.1754465c-.1575215-.21818384-.4822977-.21746174-.6821871-.0390182-.1998895.1784435-.2151284.4955043-.0400376.6837552l2.9114611 3.3618499h-10.97628176c-.26589818 0-.48148154.2199228-.48148154.4912281s.21558336.4912281.48148154.4912281h10.97628176l-2.9114587 3.3618425c-.1910519.1882386-.1373234.5110738.0625685.6895124.1998895.1784386.5021347.1657158.6596562-.0447755l3.6111115-4.1754391c.0965154-.1066701.1149297-.2224281.1203632-.3223684z" fill="#000" fill-rule="nonzero"/></g></svg>