<svg height="10" viewBox="0 0 13 10" width="13" xmlns="http://www.w3.org/2000/svg"><path d="m31.000004 24.6664066c-.0090278-.1045334-.0519013-.2440913-.1203656-.3223685l-3.6111115-4.1754465c-.1575215-.2181838-.4822977-.2174617-.6821871-.0390182-.1998895.1784435-.2151284.4955043-.0400376.6837552l2.9114611 3.3618499h-10.9762818c-.2658981 0-.4814815.2199228-.4814815.4912281s.2155834.4912281.4814815.4912281h10.9762818l-2.9114587 3.3618425c-.1910519.1882386-.1373234.5110738.0625685.6895124.1998895.1784386.5021347.1657158.6596562-.0447755l3.6111115-4.1754391c.0965154-.1066701.1149297-.2224281.1203632-.3223684z" fill="#fff" transform="matrix(-1 0 0 -1 31 30)"/></svg>