<svg version="1" xmlns="http://www.w3.org/2000/svg" width="256" height="256" viewBox="0 0 192.000000 192.000000"><path d="M0 96v96h192V0H0v96zm138.2-49c0 6 .1 11.6.2 12.2.1.7-.7 1.4-1.6 1.6-1 .2-1.8-.3-1.8-1 0-.8-1.2-3.8-2.6-6.6-1.9-3.9-3.8-5.9-7.2-8-4.3-2.4-5.8-2.7-16.4-3.1L97 41.8V90h10c6.3 0 11.3-.5 13.3-1.4 4.1-1.7 7.6-5.5 8.6-9.2.4-1.6 1.5-3 2.4-3.2 1.5-.3 1.7 1.3 1.7 17.7 0 20.2-.7 21.9-5 12.8-3.6-7.6-8.2-9.7-21.3-9.7h-9.8l.3 24.6.3 24.6 2.5 2c2.1 1.7 3.6 1.9 12.1 1.6 9.1-.3 10-.5 13.6-3.3 2.3-1.9 5-5.6 6.8-9.3 1.9-3.9 3.5-6.1 4.5-5.9.8.1 1.5.8 1.4 1.5-.1.6-.2 6.1-.2 12.2l-.2 11H95.5c-40.8 0-42.5-.1-42.5-1.9 0-1.4 1-2 4.1-2.4 5.2-.7 6.9-2.4 8-7.9 1.1-5.6 1.1-90 0-95.6-1.1-5.5-2.8-7.2-8-7.9-3.1-.4-4.1-1-4.1-2.4 0-1.8 1.7-1.9 42.5-1.9H138l.2 11z"/></svg>